<svg id="Layer_1" data-name="Layer 1" xmlns="http://www.w3.org/2000/svg" viewBox="0 0 340.9 332.94"><defs><style>.cls-1{fill:#d5112a;}.cls-2{fill:#fff;}</style></defs><path class="cls-1" d="M337.77,166.47A166.47,166.47,0,1,1,171.3,0,166.47,166.47,0,0,1,337.77,166.47"/><path class="cls-2" d="M245.42,229.87c0,2.88-1.9,4.62-5.65,4.62h-5v-9.25h5c3.75,0,5.65,1.71,5.65,4.63m6.71,16.9-5.95-8.53a8.61,8.61,0,0,0,5.46-8.37c0-6-4.44-9.63-11.53-9.63H228.63v26.53h6.14v-7.39h5.64l5.12,7.39Zm-50.42-4.92V235.7H214v-4.77H201.71v-5.76h13.95v-4.93h-20v26.53h20.54v-4.92Zm-29.91-7.4h-5v-9.21h5c3.76,0,5.65,1.71,5.65,4.63s-1.89,4.58-5.65,4.58m.34-14.21H160.66v26.53h6.14v-7.31h5.34c7.09,0,11.53-3.68,11.53-9.59s-4.44-9.63-11.53-9.63m-37.15,27c7.55,0,12-4.32,12-12.13V220.24H141v14.63c0,5-2.16,7.13-5.92,7.13s-5.91-2.09-5.91-7.13V220.24H123V235.1c0,7.81,4.47,12.13,12,12.13m-34.83,0c7.58,0,11.26-3.79,11.26-8.23,0-9.74-15.43-6.37-15.43-11.25,0-1.67,1.4-3,5-3a15,15,0,0,1,7.36,2.09l1.89-4.67a17.84,17.84,0,0,0-9.21-2.35c-7.55,0-11.18,3.76-11.18,8.27,0,9.85,15.42,6.44,15.42,11.41,0,1.63-1.47,2.84-5.11,2.84a15.62,15.62,0,0,1-8.76-2.77l-2.08,4.63c2.35,1.82,6.59,3.07,10.8,3.07"/><path class="cls-2" d="M151.33,117.65c5.66,0,9.73-5.43,9.73-12.67a5.22,5.22,0,0,0-5.21-5c-3.39,0-8.37,6.34-8.37,12C147.48,113.58,148.39,117.65,151.33,117.65Z"/><path class="cls-2" d="M130.29,123.31c-6.79,0-12.22,10.18-16.52,18.77V129.87c0-4.53-1.13-5.89-5-5.66-2.71,0-3.62,3.17-5,8.37-.68,3.62-2,29.19-2,32.58s3.39,4.08,6.11,4.08c3.39,0,4.75-2.49,5.43-7.24,1.13-7.24,9.73-29,14.25-29,2.49,0,4.07,1.81,5.43,2,2.26.91,4.3-.45,5-2.94C139.11,129,137.75,123.31,130.29,123.31Z"/><path class="cls-2" d="M100.42,95c0-9.73-6.56-16-24.66-14.45C46.8,83.06,5.16,110.86.41,126a13.6,13.6,0,0,0,1.13,9.5c1.36,4.53,4.53,5.89,5.43,3.85,14.26-31.45,57.47-48,72.18-49.35,7.92-.68,12,1.83,12,6.59,0,10.4-37.23,33.94-39,34.61-2.49,2.27-4.08,11.09-1.36,12,1.58.9,8.73-1.59,16-3.85,12-3.39,23.3-2.49,23.3,5.2,0,16.75-26.24,35.75-47.51,39.83-8.15,1.58-19.91.67-19.91-4.76C23,170.14,42.72,161.32,59,167c2.49.91,4.76-2,3.4-5.43-1.59-4.07-4.3-5.88-12.67-5.2a52.56,52.56,0,0,0-9.3,1.41,276.92,276.92,0,0,1,8.62-38.07c1.13-3.39-4.3-7.24-8.15-7.24-2.26,0-4.07,5.43-4.52,8.15-1,4.84-4.25,27-4.7,40.15-12,5.42-19.58,14.61-19.74,21.39-.22,9.73,6.79,15.39,25.34,13.81,30.1-2.72,61.55-27.61,61.55-53.18,0-14.93-14.26-16.74-28.51-11.76a8.3,8.3,0,0,0-1.36.22C86.39,121.27,100.42,108.82,100.42,95Z"/><path class="cls-2" d="M192.51,132.58a5.62,5.62,0,0,0-5.43,3.62c-1.36,3.4-9.5,14.71-14.48,14.71s-2.72-25.34,9.73-25.34c2.49,0,5,2.49,5.88,2.49,1.81,0,7.24-12-6.56-12-7.13,0-18.66,7.9-20.89,20.7-3.56,9.76-8.22,15.73-11.24,15.73-2,0,1.36-15.16,2-19.91.45-2.71,0-4.3-1.36-4.52-.68-.46-3.4-.68-5.89.45a8.26,8.26,0,0,0-3.16,3.62c-3.85,7-3.17,17.2-2.49,20.82.45,3.62,2.94,7.46,7.24,7.46,5.62,0,11.6-6.77,14.77-13,1.09,10.46,5.15,11.46,9.21,11.46,5.21,0,12.45-5.66,16.07-11.31-.68,4.07-1.59,10.18-2.27,13.8-6.33,30.77-22.62,37.78-24,39.59-.45.68.23,6.56,8.15,6.56,14.25,0,26.47-35.29,28.73-65.39C196.81,138.46,196.35,132.58,192.51,132.58Z"/><path class="cls-2" d="M332.11,119.68c-6.33.23-10.41,5.21-14.48,12.22.91-3.84,1.59-7.46,2.26-9.05.23-2.26-2.94-4.07-5.65-3.84-2.94,0-4.3,1.35-4.75,2.94-.57,1.08-1.16,4-1.71,7.81C305.46,134,292,153,281.88,153a7.13,7.13,0,0,1-7.2-4.87c10.12-1.22,19-12,19-18.44,0-6.79-4.08-8.14-9.28-8.14-9.28,0-18.78,9.05-18.78,22.85,0,10.63,4.07,17.19,14.93,17.42,11.1.37,21.59-14.22,26-22-1.06,10.1-1.83,20.89-1.83,22.27.23,4.75,8.6,4.75,8.83,3.62,2.71-24.44,12.22-36.21,17.65-36.43,2.94,0,2.26,4.3,3.39,4.75,1.36,1.81,4.07,1.13,5.66-2.26C342.07,128.06,340.26,119.46,332.11,119.68Zm-48,9.28c3.91,0-1.33,12.66-10.14,13.72C274.42,136.17,278.56,129,284.14,129Z"/><path class="cls-2" d="M260.16,132.13a70.94,70.94,0,0,1,3.32-15.85c10.11-2.79,18.21-4.2,25.87-4.06,1.81,0,2.49-1.13,2.49-4.3,0-2.26-2.94-3.39-11.54-2.49-1.4.09-7.09,1-13.75,2.07,2.91-7.65,5.72-13.82,5.83-16.1.23-2.94-4.07-7.69-8.37-6.33-2.74,1.05-4.5,6.43-9.48,24.53-5.56,1-10.43,2-12.7,2.62-4.52,1.81-2.94,12,0,10.86,3.53-1.19,6.83-2.28,10-3.28l-.24,1c-2.67,7.1-9.22,27.17-14.25,27.17-3.17,0-1.81-11.77-2.94-15.84-.91-4.3-3.4-8.15-7.7-8.15-8.14,0-12.44,9.51-17.87,17.2,1.36-19,8.82-51.59,9.73-55s-4.53-8.83-8.83-5c-5.43,5-10.18,50.68-10.18,63.35,0,4.76-1.36,16.07,7.47,16.07,6.11,0,11.11-26.12,16.54-26.12,4.53,0,3.14,24.08,12.65,24.08,5,0,9.59-6.86,13-14.16a128.49,128.49,0,0,0,1.29,15.07c1.59,12.67,7.92,13.8,9.73,14,5.43.22,6.79-3.4,6.56-4.08C260.16,157.24,259,145.71,260.16,132.13Z"/></svg>